<svg width="80" height="81" viewBox="0 0 80 81" fill="none" xmlns="http://www.w3.org/2000/svg">
<circle cx="40" cy="40.4607" r="40" fill="#F0F0F0"/>
<path d="M22.1006 45.6611C22.1006 45.6611 22.4004 49.137 22.4604 50.233C22.5404 51.703 23.1205 53.345 24.0605 54.4849C25.4005 56.1009 26.9805 56.6709 29.0804 56.6749C31.5603 56.6789 49.5399 56.6789 52.0198 56.6749C54.1198 56.6709 55.6998 56.1009 57.0397 54.4849C57.9797 53.345 58.5595 51.703 58.6395 50.233C58.6995 49.137 58.9996 45.6611 58.9996 45.6611" stroke="black" stroke-width="2.99993" stroke-linecap="round" stroke-linejoin="round"/>
<path d="M33.5 25.3654V24.6234C33.5 22.1835 35.4599 20.2075 37.8998 20.2075H43.0799C45.4998 20.2075 47.4797 22.1835 47.4797 24.6234V25.3654" stroke="black" stroke-width="2.99993" stroke-linecap="round" stroke-linejoin="round"/>
<path d="M40.4795 48.0625V45.4746" stroke="black" stroke-width="2.99993" stroke-linecap="round" stroke-linejoin="round"/>
<path fill-rule="evenodd" clip-rule="evenodd" d="M22 31.4855V38.4193C25.8399 40.9493 30.4398 42.7212 35.4797 43.4232C36.0797 41.2213 38.0596 39.6073 40.4796 39.6073C42.8595 39.6073 44.8794 41.2213 45.4394 43.4432C50.4993 42.7412 55.1192 40.9693 58.9791 38.4193V31.4855C58.9791 28.0976 56.2593 25.3696 52.8594 25.3696H28.1398C24.7398 25.3696 22 28.0976 22 31.4855Z" stroke="black" stroke-width="2.99993" stroke-linecap="round" stroke-linejoin="round"/>
</svg>
