<svg width="42" height="42" viewBox="0 0 42 42" fill="none" xmlns="http://www.w3.org/2000/svg">
<path d="M7.13747 39.5232H13.1828V33.4857H7.13747V39.5232ZM2.08303 28.4326V33.4857H7.13615V28.4326H2.08303ZM40.3267 14.5109C38.4393 8.42487 33.5673 3.57649 27.4799 1.66549C13.5267 -2.6907 0.655029 7.68593 0.655029 20.9921H8.51428C8.51428 12.6419 16.7988 6.18574 25.5847 9.36855C27.2 9.95536 28.6672 10.8888 29.8833 12.1033C31.0993 13.3177 32.0347 14.7837 32.6236 16.3983C35.8313 25.1763 29.3673 33.4451 21.025 33.4608V33.4857H21.0001V41.345C34.339 41.345 44.6907 28.4825 40.3267 14.5122V14.5109ZM21.025 33.4608V25.6436H13.1828V33.4857H21.0001V33.4608H21.025Z" fill="#0D41E1"/>
</svg>
