<svg width="72" height="32" viewBox="0 0 72 32" fill="none" xmlns="http://www.w3.org/2000/svg">
<path d="M0.996 24V1.44H9.188C11.7693 1.44 13.9453 1.888 15.716 2.784C17.508 3.65867 18.8627 4.93867 19.78 6.624C20.6973 8.288 21.156 10.3147 21.156 12.704C21.156 15.072 20.6973 17.0987 19.78 18.784C18.8627 20.4693 17.508 21.76 15.716 22.656C13.9453 23.552 11.7693 24 9.188 24H0.996ZM5.124 20.576H8.932C11.6627 20.576 13.6893 19.9253 15.012 18.624C16.3347 17.3227 16.996 15.3493 16.996 12.704C16.996 10.0373 16.3347 8.064 15.012 6.784C13.6893 5.48267 11.6627 4.832 8.932 4.832H5.124V20.576ZM25.051 24V7.84H29.051V24H25.051ZM24.827 4.8V0.895998H29.275V4.8H24.827ZM40.8828 31.168C39.3894 31.168 38.0348 31.008 36.8188 30.688C35.6241 30.368 34.5574 29.8773 33.6188 29.216L34.4828 26.336C35.1014 26.7413 35.7414 27.072 36.4028 27.328C37.0641 27.584 37.7468 27.776 38.4508 27.904C39.1548 28.032 39.8694 28.096 40.5948 28.096C42.0881 28.096 43.1974 27.7227 43.9228 26.976C44.6694 26.2507 45.0428 25.2053 45.0428 23.84V19.968H45.3628C45.0214 21.0773 44.3281 21.9627 43.2828 22.624C42.2588 23.2853 41.0748 23.616 39.7308 23.616C38.2801 23.616 37.0108 23.296 35.9227 22.656C34.8561 21.9947 34.0241 21.056 33.4268 19.84C32.8294 18.624 32.5308 17.1947 32.5308 15.552C32.5308 13.9093 32.8294 12.4907 33.4268 11.296C34.0241 10.08 34.8561 9.152 35.9227 8.512C37.0108 7.85067 38.2801 7.52 39.7308 7.52C41.0961 7.52 42.2801 7.85067 43.2828 8.512C44.3068 9.152 44.9894 10.0267 45.3308 11.136L45.0428 10.944L45.3628 7.84H49.2348C49.1494 8.50133 49.0854 9.17333 49.0428 9.856C49.0001 10.5387 48.9788 11.2107 48.9788 11.872V23.36C48.9788 25.8987 48.2854 27.8293 46.8988 29.152C45.5334 30.496 43.5281 31.168 40.8828 31.168ZM40.8188 20.544C42.0988 20.544 43.1121 20.1173 43.8588 19.264C44.6268 18.3893 45.0108 17.152 45.0108 15.552C45.0108 13.952 44.6268 12.7253 43.8588 11.872C43.1121 11.0187 42.0988 10.592 40.8188 10.592C39.5174 10.592 38.4828 11.0187 37.7148 11.872C36.9468 12.7253 36.5628 13.952 36.5628 15.552C36.5628 17.152 36.9468 18.3893 37.7148 19.264C38.4828 20.1173 39.5174 20.544 40.8188 20.544ZM53.301 24V7.84H57.301V24H53.301ZM53.077 4.8V0.895998H57.525V4.8H53.077ZM68.5568 24.32C66.6368 24.32 65.1861 23.8187 64.2048 22.816C63.2234 21.8133 62.7328 20.3093 62.7328 18.304V10.848H59.6288V7.84H62.7328V3.712L66.7328 2.688V7.84H71.0528V10.848H66.7328V18.048C66.7328 19.1573 66.9461 19.936 67.3728 20.384C67.7994 20.832 68.3861 21.056 69.1328 21.056C69.5381 21.056 69.8794 21.024 70.1568 20.96C70.4554 20.896 70.7434 20.8107 71.0208 20.704V23.872C70.6581 24.0213 70.2528 24.128 69.8048 24.192C69.3781 24.2773 68.9621 24.32 68.5568 24.32Z" fill="#0D41E1"/>
</svg>
