<svg width="71" height="32" viewBox="0 0 71 32" fill="none" xmlns="http://www.w3.org/2000/svg">
<path d="M0.496 24V1.44H8.688C11.2693 1.44 13.4453 1.888 15.216 2.784C17.008 3.65867 18.3627 4.93867 19.28 6.624C20.1973 8.288 20.656 10.3147 20.656 12.704C20.656 15.072 20.1973 17.0987 19.28 18.784C18.3627 20.4693 17.008 21.76 15.216 22.656C13.4453 23.552 11.2693 24 8.688 24H0.496ZM4.624 20.576H8.432C11.1627 20.576 13.1893 19.9253 14.512 18.624C15.8347 17.3227 16.496 15.3493 16.496 12.704C16.496 10.0373 15.8347 8.064 14.512 6.784C13.1893 5.48267 11.1627 4.832 8.432 4.832H4.624V20.576ZM24.551 24V7.84H28.551V24H24.551ZM24.327 4.8V0.895998H28.775V4.8H24.327ZM40.3828 31.168C38.8894 31.168 37.5348 31.008 36.3188 30.688C35.1241 30.368 34.0574 29.8773 33.1188 29.216L33.9828 26.336C34.6014 26.7413 35.2414 27.072 35.9028 27.328C36.5641 27.584 37.2468 27.776 37.9508 27.904C38.6548 28.032 39.3694 28.096 40.0948 28.096C41.5881 28.096 42.6974 27.7227 43.4228 26.976C44.1694 26.2507 44.5428 25.2053 44.5428 23.84V19.968H44.8628C44.5214 21.0773 43.8281 21.9627 42.7828 22.624C41.7588 23.2853 40.5748 23.616 39.2308 23.616C37.7801 23.616 36.5108 23.296 35.4227 22.656C34.3561 21.9947 33.5241 21.056 32.9268 19.84C32.3294 18.624 32.0308 17.1947 32.0308 15.552C32.0308 13.9093 32.3294 12.4907 32.9268 11.296C33.5241 10.08 34.3561 9.152 35.4227 8.512C36.5108 7.85067 37.7801 7.52 39.2308 7.52C40.5961 7.52 41.7801 7.85067 42.7828 8.512C43.8068 9.152 44.4894 10.0267 44.8308 11.136L44.5428 10.944L44.8628 7.84H48.7348C48.6494 8.50133 48.5854 9.17333 48.5428 9.856C48.5001 10.5387 48.4788 11.2107 48.4788 11.872V23.36C48.4788 25.8987 47.7854 27.8293 46.3988 29.152C45.0334 30.496 43.0281 31.168 40.3828 31.168ZM40.3188 20.544C41.5988 20.544 42.6121 20.1173 43.3588 19.264C44.1268 18.3893 44.5108 17.152 44.5108 15.552C44.5108 13.952 44.1268 12.7253 43.3588 11.872C42.6121 11.0187 41.5988 10.592 40.3188 10.592C39.0174 10.592 37.9828 11.0187 37.2148 11.872C36.4468 12.7253 36.0628 13.952 36.0628 15.552C36.0628 17.152 36.4468 18.3893 37.2148 19.264C37.9828 20.1173 39.0174 20.544 40.3188 20.544ZM52.801 24V7.84H56.801V24H52.801ZM52.577 4.8V0.895998H57.025V4.8H52.577ZM68.0568 24.32C66.1368 24.32 64.6861 23.8187 63.7048 22.816C62.7234 21.8133 62.2328 20.3093 62.2328 18.304V10.848H59.1288V7.84H62.2328V3.712L66.2328 2.688V7.84H70.5528V10.848H66.2328V18.048C66.2328 19.1573 66.4461 19.936 66.8728 20.384C67.2994 20.832 67.8861 21.056 68.6328 21.056C69.0381 21.056 69.3794 21.024 69.6568 20.96C69.9554 20.896 70.2434 20.8107 70.5208 20.704V23.872C70.1581 24.0213 69.7528 24.128 69.3048 24.192C68.8781 24.2773 68.4621 24.32 68.0568 24.32Z" fill="white"/>
</svg>
