<svg width="29" height="29" viewBox="0 0 29 29" fill="none" xmlns="http://www.w3.org/2000/svg">
<circle cx="14.31" cy="14.31" r="13.7376" stroke="#111111" stroke-width="1.1448"/>
<path d="M15.8076 15.4899V22.6878H12.6138V15.4899V15.4738H12.5977H9.99267V12.5219H12.5977H12.6138V12.5058V10.2315C12.6138 8.941 12.9982 7.94132 13.6746 7.26428C14.351 6.58722 15.3214 6.23095 16.4971 6.23095C17.061 6.23095 17.638 6.28128 18.0742 6.33164C18.2923 6.35682 18.475 6.382 18.6033 6.40088C18.6674 6.41032 18.7179 6.41818 18.7524 6.42369L18.7917 6.43007L18.7918 6.43008V8.94101H17.5061C16.8614 8.94101 16.4359 9.14119 16.1718 9.44653C15.9082 9.75143 15.8076 10.1588 15.8076 10.5693V12.5058V12.5219H15.8237H18.6683L18.2153 15.4738H15.8237H15.8076V15.4899Z" fill="#111111" stroke="#111111" stroke-width="0.0322052"/>
</svg>
