<svg width="29" height="29" viewBox="0 0 29 29" fill="none" xmlns="http://www.w3.org/2000/svg">
<circle cx="14.31" cy="14.31" r="13.7376" stroke="#111111" stroke-width="1.1448"/>
<path d="M10.8978 20.3136L10.8954 20.3122L10.8658 20.2945L8.68668 20.8659L7.74876 21.1119L8.00477 20.1766L8.58304 18.0641L8.56307 18.032C8.56279 18.0316 8.56251 18.0311 8.56224 18.0307C7.86925 16.9283 7.50275 15.6521 7.50522 14.35M10.8978 20.3136L14.4225 20.7202C17.927 20.7202 20.7809 17.87 20.7848 14.3578L21.3446 14.3592C21.3446 14.359 21.3446 14.3587 21.3446 14.3585C21.3467 13.4494 21.1689 12.549 20.8213 11.709C20.4738 10.8691 19.9635 10.1062 19.3199 9.46448C18.6783 8.82041 17.9156 8.30966 17.0757 7.96164C16.2357 7.61356 15.3351 7.43516 14.4258 7.43672M10.8978 20.3136C11.9646 20.9465 13.1821 21.2803 14.4225 21.2799L10.8978 20.3136ZM7.50522 14.35L8.06488 14.3511H7.50522C7.50522 14.3507 7.50522 14.3504 7.50522 14.35ZM7.50522 14.35C7.5058 10.5415 10.6102 7.437 14.4258 7.43672M14.4258 7.43672C14.4257 7.43672 14.4255 7.43672 14.4253 7.43672L14.4263 7.9965V7.43672C14.4262 7.43672 14.426 7.43672 14.4258 7.43672ZM17.9115 15.9581C17.7214 15.8625 16.7823 15.4002 16.6057 15.3346M17.9115 15.9581L13.6195 15.2757C14.2265 15.8193 14.7553 16.0496 15.0254 16.1672C15.08 16.191 15.124 16.2102 15.156 16.2264C15.3471 16.321 15.461 16.3065 15.571 16.1781M17.9115 15.9581C17.9495 15.9771 17.9851 15.9942 18.018 16.01M17.9115 15.9581L18.018 16.01M16.6057 15.3346C16.43 15.2718 16.3016 15.239 16.1762 15.4301C16.0478 15.6203 15.6811 16.0536 15.571 16.1781M16.6057 15.3346L16.4929 15.6381L16.4911 15.6428L16.416 15.845L16.4236 15.8445L16.4947 15.6452L16.4964 15.6404L16.6057 15.3346ZM15.571 16.1781L15.9905 16.5488C15.9913 16.5479 15.9921 16.547 15.9929 16.5461M15.571 16.1781L15.996 16.5424C15.995 16.5437 15.9939 16.5449 15.9929 16.5461M12.082 10.8283L12.082 10.8283L12.082 10.8283ZM12.082 10.8283C12.0957 10.8288 12.11 10.8286 12.1247 10.8284M12.082 10.8283L12.1247 10.8284M15.9929 16.5461C16.0811 16.4461 16.3413 16.1406 16.5204 15.9072C16.5501 15.9207 16.5838 15.9363 16.6208 15.9535C16.7332 16.006 16.8705 16.0717 17.0098 16.139C17.2886 16.2739 17.5683 16.4121 17.6602 16.4583L17.9115 15.9582L17.6612 16.4588C17.6881 16.4722 17.7143 16.485 17.7384 16.4966C17.7254 16.6061 17.696 16.7478 17.6413 16.9031C17.6248 16.9472 17.5271 17.0753 17.2975 17.2225C17.0813 17.3611 16.8751 17.4356 16.7943 17.4486C16.5072 17.4895 16.1891 17.5021 15.8449 17.3919L15.8441 17.3917C15.5717 17.3049 15.2358 17.195 14.8084 17.0085L14.8068 17.0078C13.1685 16.2994 12.046 14.6954 11.8073 14.3543C11.7905 14.3303 11.7781 14.3126 11.7702 14.3018L11.7702 14.3018L11.7669 14.2975L11.7655 14.2956C11.7209 14.2362 11.5507 14.0099 11.3914 13.6967C11.2264 13.3724 11.0975 13.0018 11.0975 12.6563C11.0975 11.9929 11.4014 11.6687 11.5806 11.4776C11.5933 11.464 11.6055 11.4511 11.6168 11.4387L11.6169 11.4388L11.6248 11.4299C11.6379 11.415 11.6539 11.403 11.6719 11.3946C11.6885 11.3868 11.7065 11.3823 11.7248 11.3813C11.8312 11.3813 11.9225 11.3815 12.0002 11.3846C12.0672 11.5429 12.1709 11.795 12.2738 12.0453C12.2931 12.0923 12.3124 12.1393 12.3315 12.1856L12.3338 12.1912C12.423 12.408 12.5161 12.6343 12.5694 12.7555C12.5586 12.7775 12.5513 12.7917 12.5449 12.8031C12.5348 12.8213 12.525 12.8363 12.5047 12.8595L12.5029 12.8616C12.4404 12.9336 12.3956 12.9886 12.3586 13.0339C12.3144 13.0882 12.2815 13.1286 12.243 13.1678C12.2411 13.1696 12.239 13.1717 12.2365 13.1742C12.194 13.2158 12.0642 13.3432 11.9962 13.5245C11.9032 13.7724 11.9487 14.0206 12.0698 14.2308L12.0697 14.2309L12.0747 14.2392C12.1931 14.4368 12.6101 15.1267 13.2468 15.6934M15.9929 16.5461C15.881 16.6755 15.7082 16.8123 15.4599 16.8418C15.2341 16.8685 15.0398 16.7935 14.9077 16.7281L14.9026 16.7256L14.9026 16.7255C14.8841 16.7162 14.8537 16.7031 14.8127 16.6855C14.5651 16.5793 13.9342 16.3087 13.2468 15.6934M13.2468 15.6934C13.247 15.6935 13.2472 15.6937 13.2474 15.6939L13.6194 15.2758L13.246 15.6927C13.2463 15.6929 13.2465 15.6932 13.2468 15.6934ZM18.1683 17.0921C18.0071 17.539 17.2436 17.9463 16.8769 18.0023L18.1683 17.0921ZM18.1683 17.0921C18.3265 16.6443 18.3265 16.2621 18.2783 16.182M18.1683 17.0921L18.2783 16.182M12.1247 10.8284C12.2363 10.8268 12.375 10.8247 12.5115 11.1564L12.1247 10.8284ZM18.2783 16.182C18.2404 16.117 18.1505 16.0738 18.018 16.01M18.2783 16.182L18.018 16.01M10.6226 20.5425L7.502 21.3605L8.32902 18.3291L8.39018 18.1049L8.27458 17.9033C7.65601 16.8246 7.32863 15.6071 7.32858 14.3552C7.3323 10.4482 10.517 7.26491 14.4225 7.26491L14.4245 7.26491C15.3561 7.2616 16.279 7.44374 17.1395 7.8007C17.95 8.13696 18.6899 8.62203 19.3211 9.23034L19.4384 9.34695C20.099 10.0041 20.623 10.7855 20.9803 11.646C21.3377 12.5066 21.5211 13.4294 21.5203 14.3612V14.3612C21.5167 18.2724 18.3327 21.4556 14.4263 21.4556L14.4226 21.4556C14.4226 21.4556 14.4225 21.4556 14.4225 21.4556C13.238 21.4553 12.0725 21.1585 11.0321 20.5923L10.8372 20.4863L10.6226 20.5425ZM14.4263 22.0154C18.6421 22.0154 22.0762 18.5814 22.08 14.3617L14.4225 22.0154H14.4263Z" fill="#111111" stroke="#111111" stroke-width="1.11957"/>
</svg>
