<svg width="29" height="29" viewBox="0 0 29 29" fill="none" xmlns="http://www.w3.org/2000/svg">
<path d="M19.7561 18.4466L19.7561 18.4466C19.6302 18.7604 19.4784 18.9951 19.2352 19.2365M19.7561 18.4466L9.54986 19.2321L9.54376 19.2382C9.78518 19.4813 10.0199 19.6332 10.3337 19.759L10.3337 19.7591C10.7872 19.9384 11.5516 20.0075 12.3266 20.032C12.8843 20.0496 13.4485 20.0441 13.9076 20.0397C14.0867 20.0379 14.2499 20.0363 14.3904 20.0363C14.5305 20.0363 14.693 20.0379 14.8715 20.0396C15.3307 20.0441 15.8952 20.0496 16.4533 20.0318C17.2279 20.0071 17.9919 19.9375 18.4454 19.7573L18.4454 19.7573C18.7592 19.6315 18.9921 19.4796 19.2352 19.2365M19.7561 18.4466C19.9363 17.9931 20.0059 17.2291 20.0306 16.4545C20.0484 15.8965 20.0429 15.3319 20.0384 14.8727C20.0367 14.6943 20.0351 14.5317 20.0351 14.3916C20.0351 14.2511 20.0367 14.0879 20.0384 13.9088C20.0429 13.4497 20.0484 12.8856 20.0308 12.3278C20.0063 11.5528 19.9372 10.7884 19.7578 10.3349L19.7578 10.3349C19.632 10.0211 19.4801 9.78814 19.237 9.54503M19.7561 18.4466L19.237 9.54503M19.2352 19.2365L19.2292 19.2304L19.2353 19.2365C19.2353 19.2365 19.2352 19.2365 19.2352 19.2365ZM19.2309 9.55109C18.9903 9.3088 18.7566 9.15759 18.4439 9.03215C17.667 8.72492 15.9708 8.74146 14.8735 8.75216C14.6943 8.75391 14.531 8.7555 14.3904 8.7555C14.2497 8.7555 14.0865 8.75391 13.9073 8.75216C12.81 8.74146 11.1138 8.72492 10.3368 9.03215L19.7481 18.4434C20.057 17.6661 20.0405 15.9699 20.0298 14.873C20.0281 14.6945 20.0265 14.5318 20.0265 14.3916C20.0265 14.251 20.0281 14.0877 20.0298 13.9085C20.0405 12.8112 20.0571 11.115 19.7498 10.3381C19.6244 10.0253 19.4732 9.79337 19.2309 9.55109ZM19.2309 9.55109L19.237 9.54503M19.2309 9.55109L19.237 9.54501C19.237 9.54502 19.237 9.54503 19.237 9.54503M21.207 11.5568L21.207 11.5569C21.2537 12.3878 21.2528 13.2135 21.2519 14.0446C21.2518 14.1602 21.2517 14.2758 21.2517 14.3916C21.2517 14.5211 21.2519 14.6504 21.252 14.7796C21.2533 15.5969 21.2545 16.4091 21.207 17.2264L21.207 17.2264C21.1538 18.3251 20.905 19.2969 20.1012 20.1007C19.2991 20.9028 18.3256 21.1533 17.2269 21.2065L17.2269 21.2065C16.3959 21.2533 15.5702 21.2523 14.739 21.2514C14.6235 21.2513 14.5079 21.2512 14.3921 21.2512C14.2766 21.2512 14.1611 21.2513 14.0458 21.2514C13.2158 21.2523 12.3899 21.2533 11.5573 21.2065L11.5573 21.2065C10.4586 21.1533 9.4868 20.9045 8.68302 20.1007C7.88096 19.2986 7.63042 18.3251 7.57721 17.2264L7.5772 17.2264C7.53045 16.3954 7.53137 15.5683 7.53228 14.738C7.53241 14.6226 7.53254 14.5071 7.53254 14.3916C7.53254 14.2761 7.53241 14.1606 7.53228 14.0453C7.53137 13.2152 7.53045 12.3894 7.5772 11.5569L7.57721 11.5568C7.63042 10.4581 7.87925 9.48631 8.68302 8.68253C9.48508 7.88047 10.4586 7.62993 11.5573 7.57672L11.5573 7.57671C12.3883 7.52996 13.214 7.53088 14.0451 7.5318C14.1607 7.53192 14.2763 7.53205 14.3921 7.53205C14.5076 7.53205 14.6231 7.53192 14.7385 7.5318C15.5685 7.53088 16.3944 7.52996 17.2269 7.57672L17.2269 7.57672C18.3256 7.62993 19.2974 7.87876 20.1012 8.68253C20.9032 9.48459 21.1538 10.4581 21.207 11.5568ZM10.8747 14.3916C10.8747 12.4461 12.4448 10.8759 14.3904 10.8759C16.3359 10.8759 17.9061 12.4461 17.9061 14.3916C17.9061 16.3372 16.3359 17.9073 14.3904 17.9073C12.4448 17.9073 10.8747 16.3372 10.8747 14.3916ZM12.0913 14.3916C12.0913 15.6576 13.1244 16.6907 14.3904 16.6907C15.6564 16.6907 16.6895 15.6576 16.6895 14.3916C16.6895 13.1256 15.6564 12.0925 14.3904 12.0925C13.1244 12.0925 12.0913 13.1256 12.0913 14.3916ZM17.2445 10.7247C17.2445 10.2741 17.6084 9.91022 18.059 9.91022C18.166 9.91008 18.272 9.93106 18.3709 9.97194C18.4697 10.0128 18.5596 10.0728 18.6352 10.1485C18.7109 10.2241 18.7709 10.314 18.8118 10.4128C18.8527 10.5117 18.8736 10.6177 18.8735 10.7247C18.8735 11.177 18.5096 11.5392 18.059 11.5392C17.6084  " fill="#111111" stroke="#111111" stroke-width="0.0171833"/>
<circle cx="14.31" cy="14.31" r="13.7376" stroke="#111111" stroke-width="1.1448"/>
</svg>
