<svg width="29" height="29" viewBox="0 0 29 29" fill="none" xmlns="http://www.w3.org/2000/svg">
<circle cx="14.31" cy="14.31" r="13.7376" stroke="#111111" stroke-width="1.1448"/>
<path fill-rule="evenodd" clip-rule="evenodd" d="M22.9999 15.8279V21.4218H19.3995V16.2149C19.3995 14.8524 18.8368 13.9232 17.5986 13.9232C16.6508 13.9232 16.1232 14.5506 15.8791 15.1542C15.7863 15.3727 15.8013 15.6745 15.8013 15.9777V21.4218H12.2341C12.2341 21.4218 12.2805 12.1998 12.2341 11.3612H15.8013V12.9404C16.0121 12.2498 17.1524 11.2651 18.9702 11.2651C21.2268 11.2651 22.9999 12.7109 22.9999 15.8279Z" stroke="#111111" stroke-width="1.14" stroke-linejoin="round"/>
<path fill-rule="evenodd" clip-rule="evenodd" d="M7.12183 21.4216H10.2962V11.3613H7.12183V21.4216Z" stroke="#111111" stroke-width="1.14" stroke-linejoin="round"/>
<path fill-rule="evenodd" clip-rule="evenodd" d="M10.4966 8.40703C10.4966 9.2905 9.82143 9.99093 8.73992 9.99093H8.718C7.67521 9.99093 7 9.29379 7 8.40885C7 7.50674 7.69531 6.82495 8.76001 6.82495C9.82143 6.82495 10.4747 7.50528 10.4966 8.40703Z" stroke="#111111" stroke-width="1.14" stroke-linejoin="round"/>
</svg>
