<svg width="80" height="81" viewBox="0 0 80 81" fill="none" xmlns="http://www.w3.org/2000/svg">
<circle cx="40" cy="40.4607" r="40" fill="#F0F0F0"/>
<path fill-rule="evenodd" clip-rule="evenodd" d="M26.46 37.3275C26.4869 29.7237 32.6721 23.5797 40.276 23.6048C47.8816 23.6317 54.0256 29.817 54.0005 37.4226V37.5768C53.9055 42.5211 51.1455 47.0906 47.7615 50.6612C45.8264 52.6715 43.6654 54.4505 41.3215 55.9641C40.6956 56.5057 39.7649 56.5057 39.139 55.9641C35.6438 53.6883 32.5771 50.8172 30.079 47.4798C27.8498 44.5691 26.5855 41.038 26.46 37.3742V37.3275Z" stroke="black" stroke-width="2.69004" stroke-linecap="round" stroke-linejoin="round"/>
<path d="M40.2316 42.0066C42.6689 42.0066 44.6448 40.0308 44.6448 37.5934C44.6448 35.1561 42.6689 33.1802 40.2316 33.1802C37.7942 33.1802 35.8184 35.1561 35.8184 37.5934C35.8184 40.0308 37.7942 42.0066 40.2316 42.0066Z" stroke="black" stroke-width="2.69004" stroke-linecap="round" stroke-linejoin="round"/>
</svg>
