<svg width="129" height="42" viewBox="0 0 129 42" fill="none" xmlns="http://www.w3.org/2000/svg">
<g clip-path="url(#clip0_303_412)">
<path d="M7.13747 39.5232H13.1828V33.4857H7.13747V39.5232ZM2.08303 28.4326V33.4857H7.13615V28.4326H2.08303ZM40.3267 14.5109C38.4393 8.42487 33.5673 3.57649 27.4799 1.66549C13.5267 -2.6907 0.655029 7.68593 0.655029 20.9921H8.51428C8.51428 12.6419 16.7988 6.18574 25.5847 9.36855C27.2 9.95536 28.6672 10.8888 29.8833 12.1033C31.0993 13.3177 32.0347 14.7837 32.6236 16.3983C35.8313 25.1763 29.3673 33.4451 21.025 33.4608V33.4857H21.0001V41.345C34.339 41.345 44.6907 28.4825 40.3267 14.5122V14.5109ZM21.025 33.4608V25.6436H13.1828V33.4857H21.0001V33.4608H21.025Z" fill="#0D41E1"/>
</g>
<path d="M56.996 33V10.44H65.188C67.7693 10.44 69.9453 10.888 71.716 11.784C73.508 12.6587 74.8627 13.9387 75.78 15.624C76.6973 17.288 77.156 19.3147 77.156 21.704C77.156 24.072 76.6973 26.0987 75.78 27.784C74.8627 29.4693 73.508 30.76 71.716 31.656C69.9453 32.552 67.7693 33 65.188 33H56.996ZM61.124 29.576H64.932C67.6627 29.576 69.6893 28.9253 71.012 27.624C72.3347 26.3227 72.996 24.3493 72.996 21.704C72.996 19.0373 72.3347 17.064 71.012 15.784C69.6893 14.4827 67.6627 13.832 64.932 13.832H61.124V29.576ZM81.051 33V16.84H85.051V33H81.051ZM80.827 13.8V9.896H85.275V13.8H80.827ZM96.8828 40.168C95.3894 40.168 94.0348 40.008 92.8188 39.688C91.6241 39.368 90.5574 38.8773 89.6188 38.216L90.4828 35.336C91.1014 35.7413 91.7414 36.072 92.4028 36.328C93.0641 36.584 93.7468 36.776 94.4508 36.904C95.1548 37.032 95.8694 37.096 96.5948 37.096C98.0881 37.096 99.1974 36.7227 99.9228 35.976C100.669 35.2507 101.043 34.2053 101.043 32.84V28.968H101.363C101.021 30.0773 100.328 30.9627 99.2828 31.624C98.2588 32.2853 97.0748 32.616 95.7308 32.616C94.2801 32.616 93.0108 32.296 91.9227 31.656C90.8561 30.9947 90.0241 30.056 89.4268 28.84C88.8294 27.624 88.5308 26.1947 88.5308 24.552C88.5308 22.9093 88.8294 21.4907 89.4268 20.296C90.0241 19.08 90.8561 18.152 91.9227 17.512C93.0108 16.8507 94.2801 16.52 95.7308 16.52C97.0961 16.52 98.2801 16.8507 99.2828 17.512C100.307 18.152 100.989 19.0267 101.331 20.136L101.043 19.944L101.363 16.84H105.235C105.149 17.5013 105.085 18.1733 105.043 18.856C105 19.5387 104.979 20.2107 104.979 20.872V32.36C104.979 34.8987 104.285 36.8293 102.899 38.152C101.533 39.496 99.5281 40.168 96.8828 40.168ZM96.8188 29.544C98.0988 29.544 99.1121 29.1173 99.8588 28.264C100.627 27.3893 101.011 26.152 101.011 24.552C101.011 22.952 100.627 21.7253 99.8588 20.872C99.1121 20.0187 98.0988 19.592 96.8188 19.592C95.5174 19.592 94.4828 20.0187 93.7148 20.872C92.9468 21.7253 92.5628 22.952 92.5628 24.552C92.5628 26.152 92.9468 27.3893 93.7148 28.264C94.4828 29.1173 95.5174 29.544 96.8188 29.544ZM109.301 33V16.84H113.301V33H109.301ZM109.077 13.8V9.896H113.525V13.8H109.077ZM124.557 33.32C122.637 33.32 121.186 32.8187 120.205 31.816C119.223 30.8133 118.733 29.3093 118.733 27.304V19.848H115.629V16.84H118.733V12.712L122.733 11.688V16.84H127.053V19.848H122.733V27.048C122.733 28.1573 122.946 28.936 123.373 29.384C123.799 29.832 124.386 30.056 125.133 30.056C125.538 30.056 125.879 30.024 126.157 29.96C126.455 29.896 126.743 29.8107 127.021 29.704V32.872C126.658 33.0213 126.253 33.128 125.805 33.192C125.378 33.2773 124.962 33.32 124.557 33.32Z" fill="#0D41E1"/>
<defs>
<clipPath id="clip0_303_412">
<rect width="42" height="42" fill="white"/>
</clipPath>
</defs>
</svg>
