<svg width="29" height="29" viewBox="0 0 29 29" fill="none" xmlns="http://www.w3.org/2000/svg">
<circle cx="14.31" cy="14.31" r="13.7376" stroke="#111111" stroke-width="1.1448"/>
<path d="M22.4061 9.58592C21.8059 9.84297 21.1693 10.0117 20.5175 10.0865C21.1965 9.69306 21.7178 9.07003 21.9633 8.32771C21.3178 8.69801 20.6117 8.95892 19.8753 9.09915C19.2755 8.48133 18.4209 8.09521 17.4752 8.09521C15.6592 8.09521 14.1869 9.51861 14.1869 11.2742C14.1869 11.5234 14.216 11.766 14.272 11.9987C11.5393 11.8661 9.11642 10.6005 7.49461 8.67714C7.21163 9.14666 7.04948 9.69281 7.04948 10.2753C7.04948 11.3783 7.63003 12.3513 8.51227 12.9214C7.99011 12.9056 7.47943 12.7693 7.02287 12.5237C7.02269 12.5371 7.02269 12.5504 7.02269 12.5638C7.02269 14.104 8.15611 15.3889 9.66028 15.681C9.17608 15.8083 8.66818 15.8269 8.17539 15.7355C8.59379 16.9985 9.80816 17.9175 11.247 17.9433C10.1216 18.7959 8.70379 19.3041 7.1633 19.3041C6.89785 19.3041 6.63615 19.2891 6.37891 19.2597C7.83406 20.1617 9.56243 20.688 11.4193 20.688C17.4675 20.688 20.7748 15.8438 20.7748 11.6429C20.7748 11.505 20.7717 11.3679 20.7653 11.2316C21.409 10.7817 21.9647 10.2244 22.4061 9.58592Z" fill="#111111"/>
</svg>
