<svg width="41" height="42" viewBox="0 0 41 42" fill="none" xmlns="http://www.w3.org/2000/svg">
<path d="M6.63747 39.5232H12.6828V33.4857H6.63747V39.5232ZM1.58303 28.4326V33.4857H6.63615V28.4326H1.58303ZM39.8267 14.5109C37.9393 8.42487 33.0673 3.57649 26.9799 1.66549C13.0267 -2.6907 0.155029 7.68593 0.155029 20.9921H8.01428C8.01428 12.6419 16.2988 6.18574 25.0847 9.36855C26.7 9.95536 28.1672 10.8888 29.3833 12.1033C30.5993 13.3177 31.5347 14.7837 32.1236 16.3983C35.3313 25.1763 28.8673 33.4451 20.525 33.4608V33.4857H20.5001V41.345C33.839 41.345 44.1907 28.4825 39.8267 14.5122V14.5109ZM20.525 33.4608V25.6436H12.6828V33.4857H20.5001V33.4608H20.525Z" fill="white"/>
</svg>
