<svg width="29" height="29" viewBox="0 0 29 29" fill="none" xmlns="http://www.w3.org/2000/svg">
<circle cx="14.31" cy="14.31" r="13.7376" stroke="#111111" stroke-width="1.1448"/>
<path d="M10.8978 20.3136L10.8954 20.3122L10.8658 20.2945L8.68668 20.8659L7.74876 21.1119L8.00477 20.1766L8.58304 18.0641L8.56307 18.032C8.56279 18.0316 8.56251 18.0311 8.56224 18.0307C7.86925 16.9283 7.50275 15.6521 7.50522 14.35M10.8978 20.3136L21.3446 14.3588C21.3467 13.4497 21.1689 12.5491 20.8213 11.709C20.4738 10.8691 19.9635 10.1062 19.3199 9.46447C18.6783 8.82041 17.9156 8.30966 17.0757 7.96164C16.2357 7.61356 15.3351 7.43516 14.4258 7.43672M10.8978 20.3136C11.9646 20.9465 13.1821 21.2803 14.4225 21.2799L10.8978 20.3136ZM7.50522 14.35L8.06501 14.3511M7.50522 14.35C7.50522 14.3504 7.50522 14.3507 7.50522 14.3511H8.06501M7.50522 14.35C7.5058 10.5415 10.6102 7.437 14.4258 7.43672M8.06501 14.3511C8.06273 15.5479 8.39973 16.7209 9.03692 17.734M8.06501 14.3511L9.03692 17.734M14.4258 7.43672C14.4257 7.43672 14.4255 7.43672 14.4253 7.43672L14.4263 7.9965V7.43672C14.4262 7.43672 14.426 7.43672 14.4258 7.43672ZM9.03692 17.734L9.18748 17.9762L9.03692 17.734ZM11.6719 11.3946C11.6885 11.3868 11.7065 11.3823 11.7248 11.3813C11.8312 11.3813 11.9225 11.3815 12.0002 11.3846C12.0672 11.5429 12.1709 11.795 12.2738 12.0453C12.2931 12.0923 12.3124 12.1393 12.3315 12.1856L12.3338 12.1912C12.423 12.408 12.5161 12.6343 12.5694 12.7555C12.5586 12.7775 12.5513 12.7917 12.5449 12.8031C12.5348 12.8213 12.525 12.8363 12.5047 12.8595L12.5029 12.8616C12.4404 12.9336 12.3956 12.9886 12.3586 13.0339C12.3144 13.0882 12.2815 13.1286 12.243 13.1678C12.2411 13.1696 12.2389 13.1717 12.2365 13.1742C12.194 13.2158 12.0642 13.3432 11.9962 13.5245C11.9032 13.7724 11.9487 14.0206 12.0698 14.2308L12.0697 14.2309L12.0747 14.2392C12.1931 14.4368 12.6101 15.1266 13.2467 15.6933C13.9341 16.3087 14.5651 16.5793 14.8127 16.6855C14.8537 16.7031 14.8841 16.7162 14.9026 16.7255L14.9026 16.7256L14.9077 16.7281C15.0398 16.7935 15.2341 16.8685 15.4599 16.8418C15.7082 16.8123 15.8809 16.6755 15.9929 16.5461C16.081 16.4462 16.3413 16.1407 16.5204 15.9072C16.5501 15.9207 16.5838 15.9363 16.6208 15.9535C16.7332 16.006 16.8705 16.0717 17.0098 16.139C17.2886 16.2739 17.5683 16.4121 17.6602 16.4583L17.6612 16.4588C17.6881 16.4722 17.7143 16.485 17.7384 16.4966C17.7254 16.6061 17.696 16.7478 17.6413 16.9031C17.6247 16.9472 17.5271 17.0754 17.2975 17.2225C17.0814 17.3611 16.8751 17.4356 16.7943 17.4486C16.5072 17.4895 16.1891 17.5021 15.8449 17.3919L15.8441 17.3917C15.5717 17.3049 15.2358 17.195 14.8084 17.0085L14.8068 17.0078C13.1685 16.2994 12.046 14.6954 11.8073 14.3543C11.7905 14.3303 11.7781 14.3126 11.7702 14.3018L11.7702 14.3018L11.7669 14.2975L11.7655 14.2956C11.7209 14.2362 11.5507 14.0099 11.3914 13.6967C11.2264 13.3724 11.0975 13.0018 11.0975 12.6563C11.0975 11.9929 11.4014 11.6687 11.5806 11.4776C11.5933 11.464 11.6055 11.4511 11.6168 11.4387L11.6169 11.4388L11.6248 11.4299C11.6379 11.415 11.6539 11.403 11.6719 11.3946ZM11.6719 11.3946L11.435 10.8874M11.6719 11.3946C11.6719 11.3946 11.6719 11.3946 11.6719 11.3946L11.435 10.8874M11.435 10.8874C11.3472 10.9284 11.2687 10.9871 11.2047 11.0599L11.7152 10.8215C11.6183 10.8239 11.5229 10.8463 11.435 10.8874ZM10.6226 20.5425L7.502 21.3605L8.32902 18.3291L8.39018 18.1049L8.27458 17.9033C7.65601 16.8246 7.32863 15.6071 7.32858 14.3552C7.3323 10.4482 10.517 7.26491 14.4225 7.26491L14.4245 7.26491C15.3561 7.2616 16.279 7.44374 17.1395 7.8007C17.95 8.13696 18.6899 8.62201 19.3211 9.23031L19.4384 9.34695C20.099 10.0041 20.623 10.7855 20.9803 11.646C21.3377 12.5066 21.5211 13.4294 21.5203 14.3612V14.3612C21.5167 18.2724 18.3327 21.4556 14.4263 21.4556H14.4226C14.4226 21.4556 14.4225 21.4556 14.4225 21.4556C13.238 21.4553 12.0725 21.1585 11.0321 20.5923L10.8372 20.4863L10.6226 20.5425ZM14.4263 22.0154C18.6421 22.0154 22.0762 18.5814 22.08 14.3617L14.4225 22.0154H14.4263ZM18.018 16.01C17.9851 15.9942 17.9495 15.9771 17.9115 15.9581L18.2783 16.182C18.2404 16.117 18.1505 16.0738 18.018 16.01ZM14.4227 21.2799C18.2361 21.2798 21.34 18.1796 21.3446 14.3592L14.4227 21.2799Z" fill="#111111" stroke="#111111" stroke-width="1.11957"/>
</svg>
